<mxfile host="Electron" agent="Mozilla/5.0 (Windows NT 10.0; Win64; x64) AppleWebKit/537.36 (KHTML, like Gecko) draw.io/24.7.17 Chrome/128.0.6613.36 Electron/32.0.1 Safari/537.36" version="24.7.17">
  <diagram id="a3rCaW3_80exvVeCSIfu" name="Page-1">
    <mxGraphModel dx="1434" dy="884" grid="1" gridSize="10" guides="1" tooltips="1" connect="1" arrows="1" fold="1" page="1" pageScale="1" pageWidth="827" pageHeight="1169" math="0" shadow="0">
      <root>
        <mxCell id="0" />
        <mxCell id="1" parent="0" />
        <mxCell id="QLHebEcgMlDsRCI7KAz9-1" value="" style="rounded=0;whiteSpace=wrap;html=1;" parent="1" vertex="1">
          <mxGeometry x="40" y="40" width="320" height="720" as="geometry" />
        </mxCell>
        <mxCell id="QLHebEcgMlDsRCI7KAz9-2" value="" style="rounded=0;whiteSpace=wrap;html=1;" parent="1" vertex="1">
          <mxGeometry x="40" y="40" width="320" height="40" as="geometry" />
        </mxCell>
        <mxCell id="QLHebEcgMlDsRCI7KAz9-3" value="" style="rounded=1;whiteSpace=wrap;html=1;" parent="1" vertex="1">
          <mxGeometry x="240" y="50" width="50" height="20" as="geometry" />
        </mxCell>
        <mxCell id="QLHebEcgMlDsRCI7KAz9-4" value="" style="rounded=1;whiteSpace=wrap;html=1;" parent="1" vertex="1">
          <mxGeometry x="300" y="50" width="50" height="20" as="geometry" />
        </mxCell>
        <mxCell id="QLHebEcgMlDsRCI7KAz9-9" value="" style="rounded=1;whiteSpace=wrap;html=1;glass=0;shadow=0;arcSize=5;imageWidth=24;imageHeight=24;" parent="1" vertex="1">
          <mxGeometry x="50" y="90" width="300" height="150" as="geometry" />
        </mxCell>
        <mxCell id="QLHebEcgMlDsRCI7KAz9-16" value="" style="rounded=0;whiteSpace=wrap;html=1;" parent="1" vertex="1">
          <mxGeometry x="80" y="360" width="230" height="100" as="geometry" />
        </mxCell>
        <mxCell id="QLHebEcgMlDsRCI7KAz9-20" value="" style="rounded=0;whiteSpace=wrap;html=1;" parent="1" vertex="1">
          <mxGeometry x="145" y="585" width="110" height="100" as="geometry" />
        </mxCell>
        <mxCell id="QLHebEcgMlDsRCI7KAz9-25" value="" style="ellipse;whiteSpace=wrap;html=1;aspect=fixed;" parent="1" vertex="1">
          <mxGeometry x="160" y="730" width="20" height="20" as="geometry" />
        </mxCell>
        <mxCell id="QLHebEcgMlDsRCI7KAz9-26" value="" style="ellipse;whiteSpace=wrap;html=1;aspect=fixed;" parent="1" vertex="1">
          <mxGeometry x="190" y="730" width="20" height="20" as="geometry" />
        </mxCell>
        <mxCell id="QLHebEcgMlDsRCI7KAz9-27" value="" style="ellipse;whiteSpace=wrap;html=1;aspect=fixed;" parent="1" vertex="1">
          <mxGeometry x="220" y="730" width="20" height="20" as="geometry" />
        </mxCell>
        <mxCell id="QLHebEcgMlDsRCI7KAz9-32" value="" style="rounded=1;whiteSpace=wrap;html=1;" parent="1" vertex="1">
          <mxGeometry x="130" y="200" width="50" height="20" as="geometry" />
        </mxCell>
        <mxCell id="QLHebEcgMlDsRCI7KAz9-33" value="" style="rounded=1;whiteSpace=wrap;html=1;" parent="1" vertex="1">
          <mxGeometry x="215" y="200" width="50" height="20" as="geometry" />
        </mxCell>
        <mxCell id="6F31zVP1YEvaTgPzjoFU-1" value="Title" style="text;strokeColor=none;fillColor=none;html=1;fontSize=24;fontStyle=1;verticalAlign=middle;align=center;" vertex="1" parent="1">
          <mxGeometry x="40" y="40" width="100" height="40" as="geometry" />
        </mxCell>
        <mxCell id="6F31zVP1YEvaTgPzjoFU-2" value="Text" style="text;html=1;align=center;verticalAlign=middle;whiteSpace=wrap;rounded=0;" vertex="1" parent="1">
          <mxGeometry x="125" y="45" width="60" height="30" as="geometry" />
        </mxCell>
        <mxCell id="6F31zVP1YEvaTgPzjoFU-3" value="Text" style="text;html=1;align=center;verticalAlign=middle;whiteSpace=wrap;rounded=0;" vertex="1" parent="1">
          <mxGeometry x="155" y="45" width="60" height="30" as="geometry" />
        </mxCell>
        <mxCell id="6F31zVP1YEvaTgPzjoFU-4" value="Text" style="text;html=1;align=center;verticalAlign=middle;whiteSpace=wrap;rounded=0;" vertex="1" parent="1">
          <mxGeometry x="185" y="45" width="60" height="30" as="geometry" />
        </mxCell>
        <mxCell id="6F31zVP1YEvaTgPzjoFU-5" value="Text" style="text;html=1;align=center;verticalAlign=middle;whiteSpace=wrap;rounded=0;" vertex="1" parent="1">
          <mxGeometry x="235" y="45" width="60" height="30" as="geometry" />
        </mxCell>
        <mxCell id="6F31zVP1YEvaTgPzjoFU-6" value="Text" style="text;html=1;align=center;verticalAlign=middle;whiteSpace=wrap;rounded=0;" vertex="1" parent="1">
          <mxGeometry x="295" y="45" width="60" height="30" as="geometry" />
        </mxCell>
        <mxCell id="6F31zVP1YEvaTgPzjoFU-7" value="&lt;h1 style=&quot;margin-top: 0px;&quot;&gt;Heading&lt;/h1&gt;&lt;p&gt;Lorem ipsum dolor sit amet, consectetur adipisicing elit, sed do eiusmod tempor incididunt ut labore et dolore magna aliqua.&lt;/p&gt;" style="text;html=1;whiteSpace=wrap;overflow=hidden;rounded=0;" vertex="1" parent="1">
          <mxGeometry x="50" y="240" width="300" height="120" as="geometry" />
        </mxCell>
        <mxCell id="6F31zVP1YEvaTgPzjoFU-8" value="&lt;h1 style=&quot;margin-top: 0px;&quot;&gt;Heading&lt;/h1&gt;&lt;p&gt;Lorem ipsum dolor sit amet, consectetur adipisicing elit, sed do eiusmod tempor incididunt ut labore et dolore magna aliqua.&lt;/p&gt;" style="text;html=1;whiteSpace=wrap;overflow=hidden;rounded=0;" vertex="1" parent="1">
          <mxGeometry x="50" y="465" width="300" height="120" as="geometry" />
        </mxCell>
        <mxCell id="6F31zVP1YEvaTgPzjoFU-9" value="" style="endArrow=none;html=1;rounded=0;exitX=0;exitY=1;exitDx=0;exitDy=0;entryX=1;entryY=0;entryDx=0;entryDy=0;" edge="1" parent="1" source="QLHebEcgMlDsRCI7KAz9-20" target="QLHebEcgMlDsRCI7KAz9-20">
          <mxGeometry width="50" height="50" relative="1" as="geometry">
            <mxPoint x="390" y="380" as="sourcePoint" />
            <mxPoint x="440" y="330" as="targetPoint" />
          </mxGeometry>
        </mxCell>
        <mxCell id="6F31zVP1YEvaTgPzjoFU-10" value="" style="endArrow=none;html=1;rounded=0;exitX=0;exitY=0;exitDx=0;exitDy=0;entryX=1;entryY=1;entryDx=0;entryDy=0;" edge="1" parent="1" source="QLHebEcgMlDsRCI7KAz9-16" target="QLHebEcgMlDsRCI7KAz9-16">
          <mxGeometry width="50" height="50" relative="1" as="geometry">
            <mxPoint x="60" y="320" as="sourcePoint" />
            <mxPoint x="370" y="130" as="targetPoint" />
          </mxGeometry>
        </mxCell>
        <mxCell id="6F31zVP1YEvaTgPzjoFU-11" value="" style="endArrow=none;html=1;rounded=0;exitX=0;exitY=1;exitDx=0;exitDy=0;entryX=1;entryY=0;entryDx=0;entryDy=0;" edge="1" parent="1" source="QLHebEcgMlDsRCI7KAz9-16" target="QLHebEcgMlDsRCI7KAz9-16">
          <mxGeometry width="50" height="50" relative="1" as="geometry">
            <mxPoint x="70" y="330" as="sourcePoint" />
            <mxPoint x="380" y="140" as="targetPoint" />
          </mxGeometry>
        </mxCell>
        <mxCell id="6F31zVP1YEvaTgPzjoFU-13" value="" style="endArrow=none;html=1;rounded=0;exitX=0;exitY=0;exitDx=0;exitDy=0;entryX=1;entryY=1;entryDx=0;entryDy=0;" edge="1" parent="1" source="QLHebEcgMlDsRCI7KAz9-20" target="QLHebEcgMlDsRCI7KAz9-20">
          <mxGeometry width="50" height="50" relative="1" as="geometry">
            <mxPoint x="155" y="695" as="sourcePoint" />
            <mxPoint x="265" y="595" as="targetPoint" />
          </mxGeometry>
        </mxCell>
      </root>
    </mxGraphModel>
  </diagram>
</mxfile>
